<svg width="122" height="19" viewBox="0 0 122 19" fill="none" xmlns="http://www.w3.org/2000/svg">
<g id="Layer 2">
<g id="BW 1">
<g id="NETOKRACIJA">
<g id="TYPE">
<path id="Vector" d="M49.7044 14.4385L50.6446 6.55815H47.4414L47.6446 4.83374H55.7753L55.5674 6.55815H52.3642L51.4241 14.4385H49.7044Z" fill="white"/>
<path id="Vector_2" d="M81.8527 14.4384L81.9566 13.5786C82.0172 13.1361 81.9684 12.6855 81.8144 12.2662C81.6603 11.847 81.4058 11.4719 81.0731 11.1739H77.8227L77.4353 14.4337H75.7109L76.8542 4.81955H81.5503C81.9518 4.81462 82.3497 4.8965 82.7166 5.05958C83.0835 5.22266 83.4109 5.46309 83.6763 5.76443C83.9414 6.07003 84.138 6.42883 84.2529 6.81671C84.3678 7.20459 84.3983 7.61258 84.3424 8.01325C84.2788 8.49105 84.1207 8.95141 83.8774 9.3675C83.634 9.7836 83.3103 10.1471 82.9251 10.4369L82.8968 10.4605V10.4888C83.5328 11.387 83.8062 12.4922 83.6621 13.5833L83.5582 14.4479L81.8527 14.4384ZM78.0306 9.45419H81.0023C81.3949 9.44453 81.7717 9.29737 82.067 9.03836C82.3623 8.77935 82.5573 8.42492 82.618 8.03687C82.644 7.85248 82.63 7.66466 82.577 7.48615C82.524 7.30764 82.4333 7.1426 82.3109 7.00222C82.188 6.86694 82.0375 6.75945 81.8697 6.68694C81.7019 6.61443 81.5205 6.57857 81.3377 6.58175H78.3755L78.0306 9.45419Z" fill="white"/>
<path id="Vector_3" d="M71.8126 14.4385L71.9165 13.5786C71.9966 13.0265 71.9033 12.4631 71.6494 11.9663C71.3955 11.4696 70.9936 11.0639 70.4992 10.8054C69.837 11.0454 69.1389 11.1716 68.4346 11.1786H68.2551L68.2126 11.2117L67.8299 14.4432H66.1055L67.2535 4.81958H68.9779L68.4299 9.4306H68.6567C69.689 9.40456 70.6785 9.01261 71.4486 8.32467C72.2188 7.63673 72.7195 6.69756 72.8614 5.6747L72.9653 4.81958H74.685L74.5858 5.6747C74.3731 7.28216 73.5491 8.7458 72.285 9.76131L72.2519 9.78966L72.285 9.81801C72.8066 10.2866 73.2041 10.8769 73.4424 11.5363C73.6806 12.1957 73.752 12.9038 73.6504 13.5975L73.5464 14.4621L71.8126 14.4385Z" fill="white"/>
<path id="Vector_4" d="M104.895 14.4385L106.038 4.83374H107.762L106.619 14.4385H104.895Z" fill="white"/>
<path id="Vector_5" d="M110.019 4.81958L108.894 14.2684C108.796 14.9654 108.454 15.6051 107.929 16.0738C107.404 16.5426 106.73 16.8102 106.027 16.829L105.828 18.5676C107.006 18.5339 108.134 18.0833 109.011 17.2961C109.889 16.5089 110.458 15.436 110.619 14.2684L111.743 4.81958H110.019Z" fill="white"/>
<path id="Vector_6" d="M92.016 14.4383L92.2995 12.0761H87.7735L87.4853 14.4383H85.7656L86.4318 8.82573C86.5795 7.73594 87.1104 6.73435 87.9293 6.00028C88.7482 5.26621 89.8017 4.84761 90.9011 4.81943C91.4029 4.81032 91.9008 4.90892 92.3613 5.10859C92.8217 5.30827 93.234 5.60436 93.5704 5.97691C93.905 6.3618 94.1533 6.81399 94.2984 7.30299C94.4434 7.79199 94.4819 8.30641 94.4113 8.81155L93.7404 14.4336L92.016 14.4383ZM90.7121 6.55801C90.0908 6.5733 89.4952 6.80874 89.0314 7.22234C88.5676 7.63595 88.2658 8.20083 88.1798 8.81628L88.0003 10.3375H92.531L92.7105 8.82573C92.7514 8.53977 92.7303 8.24837 92.6488 7.97125C92.5673 7.69412 92.4272 7.43774 92.2381 7.21943C92.0469 7.00508 91.8114 6.8349 91.5479 6.72068C91.2844 6.60647 90.9992 6.55096 90.7121 6.55801Z" fill="white"/>
<path id="Vector_7" d="M119 14.4384L119.289 12.0762H114.758L114.474 14.4384H112.75L113.416 8.82576C113.564 7.73598 114.095 6.73439 114.914 6.00032C115.733 5.26625 116.786 4.84765 117.885 4.81946C118.387 4.81005 118.885 4.90851 119.346 5.1082C119.806 5.3079 120.219 5.60416 120.555 5.97695C120.89 6.36117 121.139 6.81331 121.285 7.30249C121.43 7.79168 121.468 8.30642 121.396 8.81159L120.725 14.4336L119 14.4384ZM117.673 6.55805C117.052 6.57255 116.456 6.80783 115.993 7.22168C115.53 7.63553 115.229 8.20088 115.145 8.81631L114.961 10.3376H119.492L119.671 8.82576C119.711 8.53983 119.689 8.24874 119.608 7.97181C119.526 7.69487 119.387 7.43842 119.199 7.21946C119.007 7.00562 118.772 6.83577 118.508 6.7216C118.245 6.60743 117.96 6.55163 117.673 6.55805Z" fill="white"/>
<path id="Vector_8" d="M99.5072 14.4383C99.007 14.4448 98.5111 14.3441 98.0531 14.1428C97.5951 13.9415 97.1856 13.6443 96.8521 13.2714C96.5185 12.8861 96.2717 12.4335 96.1282 11.9445C95.9847 11.4554 95.9481 10.9412 96.0206 10.4368L96.2143 8.80685C96.3534 7.70955 96.8895 6.70118 97.7214 5.9722C98.5283 5.24368 99.5729 4.83391 100.66 4.81944C101.164 4.81016 101.664 4.90958 102.127 5.11094C102.589 5.31231 103.002 5.61089 103.339 5.98637L103.873 6.5911L102.521 7.82889L101.983 7.21944C101.792 7.00645 101.557 6.83714 101.294 6.72301C101.032 6.60888 100.748 6.55261 100.462 6.55803C99.8403 6.57332 99.2447 6.80875 98.7809 7.22236C98.3171 7.63596 98.0153 8.20085 97.9293 8.81629L97.7356 10.4462C97.696 10.7314 97.7177 11.0218 97.7992 11.2979C97.8806 11.5741 98.02 11.8297 98.208 12.0478C98.3995 12.262 98.635 12.4324 98.8983 12.5474C99.1617 12.6623 99.4467 12.7191 99.734 12.7139C100.355 12.7067 100.952 12.4713 101.411 12.0525L102.082 11.4336L103.154 12.6478L102.469 13.2572C101.661 14.0022 100.606 14.4227 99.5072 14.4383Z" fill="white"/>
<path id="Vector_9" d="M60.074 14.4383C59.5706 14.4475 59.0711 14.3481 58.6097 14.1467C58.1482 13.9453 57.7356 13.6467 57.4 13.2714C57.0654 12.8867 56.8178 12.4342 56.6743 11.945C56.5308 11.4557 56.4947 10.9412 56.5685 10.4367L56.7622 8.8068C56.9013 7.70951 57.4375 6.70114 58.2693 5.97215C59.0819 5.23751 60.1361 4.82724 61.2315 4.8194C61.7349 4.81048 62.2343 4.91009 62.6957 5.11146C63.1571 5.31282 63.5697 5.61121 63.9055 5.98633C64.2391 6.37168 64.486 6.8242 64.6294 7.31326C64.7729 7.80232 64.8096 8.3165 64.737 8.82097L64.5433 10.4509C64.4063 11.5489 63.8698 12.5579 63.0362 13.2855C62.2242 14.0209 61.1696 14.4313 60.074 14.4383ZM61.0189 6.55798C60.3979 6.57248 59.8024 6.80776 59.3392 7.22161C58.876 7.63546 58.5754 8.20081 58.4914 8.81625L58.2977 10.4462C58.2581 10.7314 58.2798 11.0217 58.3613 11.2979C58.4427 11.574 58.5821 11.8297 58.7701 12.0477C58.9616 12.262 59.1971 12.4324 59.4604 12.5473C59.7237 12.6623 60.0088 12.7191 60.2961 12.7139C60.919 12.7008 61.5168 12.4664 61.9826 12.0526C62.4483 11.6388 62.7515 11.0726 62.8378 10.4556L63.0315 8.8257C63.0711 8.53976 63.0495 8.24867 62.968 7.97174C62.8866 7.69481 62.7472 7.43836 62.5591 7.2194C62.3646 7.00409 62.1258 6.83347 61.8592 6.71929C61.5925 6.60511 61.3042 6.55008 61.0142 6.55798H61.0189Z" fill="white"/>
<path id="Vector_10" d="M38.0938 14.4385L39.2371 4.83374H45.7756L45.5725 6.55815H40.7583L40.4938 8.7739H44.7835L44.5756 10.4983H40.2859L40.0213 12.7141H44.8355L44.6323 14.4385H38.0938Z" fill="white"/>
<path id="Vector_11" d="M29.61 8.06051L28.8494 14.4385H27.125L28.2872 4.83374H29.7754L34.4904 11.207L35.2463 4.83374H36.9565L35.8132 14.4385H34.3203L29.61 8.06051Z" fill="white"/>
</g>
<path id="MARK" d="M21.3921 0.567627L21.2079 2.03692C21.1148 2.58711 20.9019 3.11011 20.5844 3.56893C20.2668 4.02775 19.8522 4.41116 19.3701 4.69204C17.915 5.3818 15.5906 4.12983 13.3843 2.92511C11.3764 1.83377 9.29291 0.704635 7.30394 0.638493C5.85451 0.550623 4.42584 1.01672 3.30709 1.94243C2.33301 2.81425 1.7211 4.01952 1.59213 5.32038L0 18.1613H1.6252L1.75748 17.1031C1.87024 16.6342 2.08959 16.1976 2.39849 15.8272C2.7074 15.4569 3.09753 15.1627 3.53858 14.9676C5.2252 14.2164 7.7622 15.322 10.2142 16.3849C12.189 17.2495 14.2394 18.1424 16.115 18.1991H16.4787C17.667 18.2184 18.8225 17.8092 19.7339 17.0464C20.7288 16.1309 21.3371 14.8704 21.4346 13.522L23.0173 0.567627H21.3921ZM10.9559 6.49676C10.9552 6.72915 10.9076 6.95902 10.8159 7.17254C10.7241 7.38606 10.5902 7.57883 10.422 7.73928C10.8661 7.94715 11.3102 8.16448 11.7496 8.38652C13.422 9.22747 15.1512 10.1015 16.7433 10.3377C17.3204 10.4566 17.9154 10.4585 18.4932 10.3433C19.071 10.228 19.6198 9.99802 20.1071 9.66684L20.2819 9.53456C20.2819 9.50621 20.2819 12.9409 16.8 12.6338H16.6677C16.7978 12.8766 16.8675 13.1473 16.8709 13.4227C16.8613 13.7214 16.775 14.0126 16.6205 14.2684C17.749 14.4068 18.8879 14.1095 19.8047 13.4369C19.8047 13.5314 19.8047 16.6495 16.3937 16.5409C14.811 16.4936 12.8976 15.6574 11.0457 14.8495C8.21102 13.6023 5.51339 12.3598 3.0378 13.4653C2.72521 13.6067 2.43028 13.7843 2.15906 13.9944C2.15906 13.9519 2.28661 10.1062 6.24094 10.6212C7.69606 10.8149 9.3874 11.6086 11.0268 12.3739C11.6646 12.6763 12.3071 12.9739 12.9543 13.2479C13.0195 13.5999 13.206 13.9179 13.4813 14.1466C13.7567 14.3754 14.1035 14.5004 14.4614 14.4999C14.8676 14.495 15.2558 14.3318 15.5434 14.0451C15.8311 13.7583 15.9954 13.3706 16.0016 12.9645C15.9991 12.7938 15.9688 12.6246 15.9118 12.4637C15.8372 12.244 15.7136 12.0441 15.5504 11.8792C15.3872 11.7143 15.1887 11.5886 14.9698 11.5117C14.7509 11.4348 14.5174 11.4087 14.2869 11.4353C14.0564 11.4619 13.835 11.5405 13.6394 11.6653C13.0583 11.4196 12.4724 11.1456 11.8961 10.8716C10.1575 10.059 8.3622 9.21802 6.69921 8.9818C6.00298 8.85899 5.28933 8.87508 4.59934 9.02913C3.90934 9.18318 3.25662 9.47216 2.67874 9.87944C2.67874 9.84164 2.72126 6.12353 6.65669 6.43062C6.80315 6.43062 6.95905 6.46841 7.12913 6.49676C7.18683 6.6894 7.28191 6.86879 7.40894 7.02468C7.53596 7.18058 7.69245 7.30993 7.86947 7.40535C8.04648 7.50076 8.24056 7.56038 8.44062 7.5808C8.64067 7.60121 8.84279 7.58202 9.03543 7.52432C9.22807 7.46662 9.40746 7.37154 9.56336 7.24452C9.71925 7.11749 9.8486 6.961 9.94402 6.78398C10.0394 6.60697 10.0991 6.41289 10.1195 6.21283C10.1399 6.01278 10.1207 5.81066 10.063 5.61802C9.99353 5.36589 9.86044 5.13584 9.67648 4.94995C9.49253 4.76405 9.26389 4.62856 9.0125 4.55646C8.76111 4.48437 8.4954 4.47809 8.24089 4.53823C7.98637 4.59837 7.75159 4.72291 7.55905 4.89991C7.37008 4.87156 7.1811 4.83849 6.99685 4.82432C5.28189 4.68731 4.37008 4.90463 3.16535 5.7692C3.16535 5.7692 3.11339 2.13613 7.02992 2.26369C8.65039 2.32983 10.5827 3.40227 12.4488 4.38967C14.4992 5.49991 16.4646 6.56763 18.2787 6.53456C19.1851 6.51707 20.0591 6.19413 20.7591 5.61802C20.7591 5.5755 20.5323 9.19912 17.2063 8.71251C15.8504 8.51408 14.2252 7.69204 12.6567 6.90306C12.0709 6.61015 11.4803 6.31723 10.8898 6.04322C10.9316 6.19085 10.9538 6.34334 10.9559 6.49676Z" fill="white"/>
</g>
</g>
</g>
</svg>
